<?xml version="1.0" standalone="no"?>
<!DOCTYPE svg PUBLIC "-//W3C//DTD SVG 1.0//EN" "http://www.w3.org/TR/2001/REC-SVG-20010904/DTD/svg10.dtd">
<svg xmlns="http://www.w3.org/2000/svg" xmlns:xlink="http://www.w3.org/1999/xlink" id="body_1" width="180" height="50">

<g transform="matrix(2 0 0 2 0 0)">
    <path transform="matrix(1 0 0 1 0 0)"  d="M12.4135 24.997C 14.8659 24.9945 17.2625 24.2594 19.3004 22.8845C 21.3382 21.5095 22.9259 19.5565 23.8626 17.2723C 24.7993 14.9881 25.043 12.4753 24.5628 10.0516C 24.0827 7.62783 22.9003 5.40196 21.1652 3.65535C 19.43 1.90875 17.22 0.719826 14.8145 0.238898C 12.409 -0.24203 9.91603 0.00662529 7.65072 0.953428C 5.38542 1.90023 3.4495 3.50267 2.08772 5.55817C 0.725928 7.61367 -0.000595304 10.0299 3.65994E-07 12.5015C 0.00240095 15.8174 1.3115 18.9966 3.6394 21.3398C 5.96729 23.6831 9.12335 24.9986 12.4135 24.997z" stroke="none" fill="#BC1237" fill-rule="nonzero" />
    <path transform="matrix(1 0 0 1 0 0)"  d="M11.9126 7.01727L11.9126 17.9827L15.3714 17.9827L15.3714 16.9972L12.9086 16.9972L12.9086 7.01727L11.9126 7.01727z" stroke="none" fill="#FFFFFF" fill-rule="nonzero" />
    <path transform="matrix(1 0 0 1 0 0)"  d="M8.4507 10.0073C 8.74511 10.0073 9.03291 9.91927 9.27766 9.75436C 9.52242 9.58945 9.71313 9.35507 9.82566 9.08089C 9.93818 8.8067 9.96747 8.50503 9.90981 8.21406C 9.85215 7.92308 9.71015 7.65589 9.50176 7.44629C 9.29337 7.23669 9.02795 7.09412 8.73912 7.0366C 8.4503 6.97908 8.15103 7.00921 7.8792 7.12318C 7.60737 7.23715 7.3752 7.42982 7.21206 7.67682C 7.04893 7.92383 6.96217 8.21405 6.96277 8.51077C 6.96277 8.70755 7.00129 8.90241 7.0761 9.08417C 7.15091 9.26594 7.26056 9.43105 7.39876 9.57005C 7.53697 9.70906 7.70102 9.81923 7.88152 9.89426C 8.06203 9.96929 8.25544 10.0077 8.4507 10.0073z" stroke="none" fill="#FFFFFF" fill-rule="nonzero" />
    <path transform="matrix(1 0 0 1 0 0)"  d="M12.9115 2.041C 12.7817 2.041 12.5342 2.02579 12.4165 2.02579C 10.3617 2.02519 8.35297 2.63871 6.64423 3.78876C 4.93548 4.93882 3.60351 6.57374 2.81678 8.48677C 2.03005 10.3998 1.8239 12.505 2.22439 14.5361C 2.62489 16.5672 3.61404 18.433 5.06676 19.8975C 6.51947 21.362 8.37048 22.3595 10.3857 22.7637C 12.4009 23.1679 14.4898 22.9608 16.3882 22.1684C 18.2866 21.3761 19.9092 20.0342 21.0508 18.3124C 22.1925 16.5906 22.8018 14.5663 22.8018 12.4954L22.8018 12.4954L22.8018 12.0301L15.3833 12.0301L15.3833 12.9943L21.8119 12.9943C 21.8119 13.0156 21.8119 13.1159 21.8119 13.1433C 21.6891 14.9613 21.0495 16.7052 19.9695 18.1665C 18.8895 19.6278 17.4147 20.7448 15.7216 21.3838C 14.0284 22.0229 12.1885 22.157 10.4217 21.7702C 8.65488 21.3834 7.036 20.4919 5.75855 19.2025C 4.44225 17.8753 3.54603 16.1845 3.18324 14.344C 2.82044 12.5035 3.00737 10.5959 3.72037 8.86243C 4.43337 7.12898 5.64042 5.64755 7.18886 4.60551C 8.73731 3.56348 10.5576 3.00763 12.4195 3.00827C 12.5282 3.00827 12.7907 3.00827 12.9145 3.00827L12.9145 3.00827L12.9115 2.041z" stroke="none" fill="#FFFFFF" fill-rule="nonzero" />
    <path transform="matrix(1 0 0 1 0 0)"  d="M34.1711 4.21888L30.4407 4.21888L30.4407 20.4891L41.9095 20.4891L41.9095 17.3227L34.1711 17.3227L34.1711 4.21888zM50.1006 14.2901L53.1368 14.2901L53.1368 17.1341C 52.269 17.4209 51.3611 17.5657 50.4477 17.563C 47.0886 17.563 45.9719 15.8444 45.9719 12.3555C 45.9719 9.02786 47.0372 7.06594 50.3934 7.06594C 52.2586 7.06594 53.324 7.65603 54.2022 8.78452L54.2022 8.78452L56.5201 6.63402C 55.1077 4.59606 52.6298 3.97858 50.3149 3.97858C 45.0906 3.97858 42.3471 6.84998 42.3471 12.3281C 42.3471 17.8063 44.825 20.7324 50.2878 20.7324C 52.7928 20.7324 55.2435 20.0876 56.5745 19.1477L56.5745 19.1477L56.5745 11.2544L50.1006 11.2544L50.1006 14.2901z" stroke="none" fill="#4D4D4D" fill-rule="nonzero" />
    <path transform="matrix(1 0 0 1 0 0)"  d="M86.0071 4.19455L86.0071 0.0942955L83.0041 0.0942955L83.0041 4.19455L79.0383 4.19455L79.0383 7.0842L83.0041 7.0842L83.0041 11.1358L86.0071 11.1358L86.0071 7.0842L90.0001 7.0842L90.0001 4.19455L86.0071 4.19455z" stroke="none" fill="#4D4D4D" fill-rule="nonzero" />
    <path transform="matrix(1 0 0 1 0 0)"  d="M72.8179 4.20975L72.8179 13.6118C 72.8179 16.2094 71.5382 17.4869 69.3712 17.4869C 67.2042 17.4869 65.9215 16.2094 65.9215 13.6118L65.9215 13.6118L65.9215 4.20975L62.2666 4.20975L62.2666 13.6665C 62.2666 18.7979 64.9829 20.7233 69.2414 20.7233L69.2414 20.7233L69.504 20.7233C 73.7686 20.7233 76.4789 18.7979 76.4789 13.6665L76.4789 13.6665L76.4789 4.20975L72.8179 4.20975z" stroke="none" fill="#4D4D4D" fill-rule="nonzero" />
</g>
</svg>